{
  "accessors": [
    {
      "bufferView": 2,
      "componentType": 5126,
      "count": 72,
      "max": [
        2.6158037185668945,
        1.4901161193847656e-07,
        5.0
      ],
      "min": [
        -2.6158037185668945,
        -0.13000020384788513,
        0.0
      ],
      "type": "VEC3"
    },
    {
      "bufferView": 2,
      "byteOffset": 864,
      "componentType": 5126,
      "count": 72,
      "max": [
        1.0,
        1.0,
        1.0
      ],
      "min": [
        -1.0,
        -1.0,
        -1.0
      ],
      "type": "VEC3"
    },
    {
      "bufferView": 1,
      "componentType": 5126,
      "count": 72,
      "max": [
        1.0,
        1.0
      ],
      "min": [
        0.0,
        0.0
      ],
      "type": "VEC2"
    },
    {
      "bufferView": 0,
      "componentType": 5125,
      "count": 114,
      "type": "SCALAR"
    },
    {
      "bufferView": 2,
      "byteOffset": 1728,
      "componentType": 5126,
      "count": 104,
      "max": [
        2.537351369857788,
        -0.05939669907093048,
        4.762672424316406
      ],
      "min": [
        -2.537353277206421,
        -0.13712076842784882,
        0.06421709060668945
      ],
      "type": "VEC3"
    },
    {
      "bufferView": 2,
      "byteOffset": 2976,
      "componentType": 5126,
      "count": 104,
      "max": [
        1.0,
        1.0,
        0.9937646389007568
      ],
      "min": [
        -1.0,
        -1.0,
        -1.0
      ],
      "type": "VEC3"
    },
    {
      "bufferView": 1,
      "byteOffset": 576,
      "componentType": 5126,
      "count": 104,
      "max": [
        0.9850043058395386,
        0.9843096137046814
      ],
      "min": [
        0.014995703473687172,
        0.04536360874772072
      ],
      "type": "VEC2"
    },
    {
      "bufferView": 0,
      "byteOffset": 456,
      "componentType": 5125,
      "count": 156,
      "type": "SCALAR"
    },
    {
      "bufferView": 3,
      "componentType": 5126,
      "count": 98,
      "max": [
        2.0416667461395264
      ],
      "min": [
        0.0
      ],
      "type": "SCALAR"
    },
    {
      "bufferView": 4,
      "componentType": 5126,
      "count": 98,
      "max": [
        1.3234889800848443e-23,
        -0.675804615020752,
        0.5943136215209961
      ],
      "min": [
        -1.3234889800848443e-23,
        -0.675804615020752,
        -1.0036120414733887
      ],
      "type": "VEC3"
    },
    {
      "bufferView": 3,
      "byteOffset": 392,
      "componentType": 5126,
      "count": 97,
      "max": [
        2.0
      ],
      "min": [
        0.0
      ],
      "type": "SCALAR"
    },
    {
      "bufferView": 4,
      "byteOffset": 1176,
      "componentType": 5126,
      "count": 97,
      "max": [
        1.3234889800848443e-23,
        -0.675804615020752,
        0.5923638343811035
      ],
      "min": [
        -1.3234889800848443e-23,
        -0.675804615020752,
        -1.0036276578903198
      ],
      "type": "VEC3"
    }
  ],
  "animations": [
    {
      "channels": [
        {
          "sampler": 0,
          "target": {
            "node": 7,
            "path": "translation"
          }
        }
      ],
      "name": "Door.001|Close",
      "samplers": [
        {
          "input": 8,
          "interpolation": "LINEAR",
          "output": 9
        }
      ]
    },
    {
      "channels": [
        {
          "sampler": 0,
          "target": {
            "node": 7,
            "path": "translation"
          }
        }
      ],
      "name": "Door.001|Open",
      "samplers": [
        {
          "input": 10,
          "interpolation": "LINEAR",
          "output": 11
        }
      ]
    }
  ],
  "asset": {
    "extras": {
      "author": "Trueno (https://sketchfab.com/astate)",
      "license": "CC-BY-4.0 (http://creativecommons.org/licenses/by/4.0/)",
      "source": "https://sketchfab.com/3d-models/garage-door-01-fb7a0e3b6cf348f48831a80e49054609",
      "title": "Garage Door 01"
    },
    "generator": "Sketchfab-14.81.0",
    "version": "2.0"
  },
  "bufferViews": [
    {
      "buffer": 0,
      "byteLength": 1080,
      "name": "floatBufferViews",
      "target": 34963
    },
    {
      "buffer": 0,
      "byteLength": 1408,
      "byteOffset": 1080,
      "byteStride": 8,
      "name": "floatBufferViews",
      "target": 34962
    },
    {
      "buffer": 0,
      "byteLength": 4224,
      "byteOffset": 2488,
      "byteStride": 12,
      "name": "floatBufferViews",
      "target": 34962
    },
    {
      "buffer": 0,
      "byteLength": 780,
      "byteOffset": 6712,
      "name": "floatBufferViews"
    },
    {
      "buffer": 0,
      "byteLength": 2340,
      "byteOffset": 7492,
      "byteStride": 12,
      "name": "floatBufferViews"
    }
  ],
  "buffers": [
    {
      "byteLength": 9832,
      "uri": "scene.bin"
    }
  ],
  "images": [
    {
      "uri": "textures/rolling-gate-g7c3d87256_1920_baseColor.jpeg"
    }
  ],
  "materials": [
    {
      "doubleSided": true,
      "name": "rolling-gate-g7c3d87256_1920",
      "pbrMetallicRoughness": {
        "baseColorTexture": {
          "index": 0
        },
        "metallicFactor": 0.0,
        "roughnessFactor": 0.8211145618000169
      }
    }
  ],
  "meshes": [
    {
      "name": "Frame_rolling-gate-g7c3d87256_1920_0",
      "primitives": [
        {
          "attributes": {
            "NORMAL": 1,
            "POSITION": 0,
            "TEXCOORD_0": 2
          },
          "indices": 3,
          "material": 0,
          "mode": 4
        }
      ]
    },
    {
      "name": "Door.001_rolling-gate-g7c3d87256_1920_0",
      "primitives": [
        {
          "attributes": {
            "NORMAL": 5,
            "POSITION": 4,
            "TEXCOORD_0": 6
          },
          "indices": 7,
          "material": 0,
          "mode": 4
        }
      ]
    }
  ],
  "nodes": [
    {
      "children": [
        1
      ],
      "matrix": [
        0.3919171988964081,
        0.0,
        0.0,
        0.0,
        0.0,
        8.702309959227785e-17,
        -0.3919171988964081,
        0.0,
        0.0,
        0.3919171988964081,
        8.702309959227785e-17,
        0.0,
        0.0,
        0.0,
        0.0,
        1.0
      ],
      "name": "Sketchfab_model"
    },
    {
      "children": [
        2
      ],
      "matrix": [
        0.009999999776482582,
        0.0,
        0.0,
        0.0,
        0.0,
        0.0,
        0.009999999776482582,
        0.0,
        0.0,
        -0.009999999776482582,
        0.0,
        0.0,
        0.0,
        0.0,
        0.0,
        1.0
      ],
      "name": "05528ff2730942b18a8f8ce933bb1c31.fbx"
    },
    {
      "children": [
        3
      ],
      "name": "Object_2"
    },
    {
      "children": [
        4
      ],
      "name": "RootNode"
    },
    {
      "children": [
        5,
        7
      ],
      "name": "Door",
      "rotation": [
        -3.090862321641907e-08,
        0.7071068286895752,
        -0.7071067094802856,
        3.0908616110991716e-08
      ],
      "scale": [
        -263.6708679199219,
        -9.110968589782715,
        -250.3220977783203
      ],
      "translation": [
        0.0,
        251.2301483154297,
        6.157235622406006
      ]
    },
    {
      "children": [
        6
      ],
      "name": "Frame",
      "rotation": [
        6.123234262925839e-17,
        1.0,
        -6.123234262925839e-17,
        4.371138828673793e-08
      ],
      "scale": [
        -0.37926068902015686,
        -10.975781440734863,
        -0.399485319852829
      ],
      "translation": [
        -1.3234889800848443e-23,
        -0.675804615020752,
        -1.0036276578903198
      ]
    },
    {
      "mesh": 0,
      "name": "Frame_rolling-gate-g7c3d87256_1920_0"
    },
    {
      "children": [
        8
      ],
      "name": "Door.001",
      "rotation": [
        6.123234262925839e-17,
        1.0,
        -6.123234262925839e-17,
        4.371138828673793e-08
      ],
      "scale": [
        -0.37926068902015686,
        -10.975781440734863,
        -0.399485319852829
      ],
      "translation": [
        -1.3234889800848443e-23,
        -0.675804615020752,
        -1.0036276578903198
      ]
    },
    {
      "mesh": 1,
      "name": "Door.001_rolling-gate-g7c3d87256_1920_0"
    }
  ],
  "samplers": [
    {
      "magFilter": 9729,
      "minFilter": 9987,
      "wrapS": 10497,
      "wrapT": 10497
    }
  ],
  "scene": 0,
  "scenes": [
    {
      "name": "Sketchfab_Scene",
      "nodes": [
        0
      ]
    }
  ],
  "textures": [
    {
      "sampler": 0,
      "source": 0
    }
  ]
}
